<svg version="1.1" viewBox="0.000000 0.000000 96.000000 96.000000" xmlns="http://www.w3.org/2000/svg" xmlns:xlink="http://www.w3.org/1999/xlink" id="Icons_Wrench" overflow="hidden"><style>
.MsftOfcThm_Text1_lumMod_50_lumOff_50_Fill {
 fill:#7F7F7F; 
}
</style>
<path d=" M 82.099998 22.900000 L 75.000000 21.000000 L 73.099998 13.900000 L 82.099998 4.900000 C 76.699997 2.900000 70.699997 4.000000 66.400002 7.900000 C 62.200001 11.800000 60.400002 17.700001 62.000000 23.200001 L 23.200001 62.000000 C 17.700001 60.500000 11.800000 62.299999 8.000000 66.500000 C 4.200000 70.699997 3.000000 76.699997 5.000000 82.099998 L 14.000000 73.099998 L 21.000000 75.000000 L 22.900000 82.099998 L 13.900000 91.099998 C 19.299999 93.099998 25.299999 92.000000 29.600000 88.099998 C 33.799999 84.199997 35.599998 78.300003 34.000000 72.800003 L 72.800003 34.000000 C 78.300003 35.500000 84.199997 33.700001 88.000000 29.500000 C 91.800003 25.299999 93.000000 19.299999 91.000000 13.900000 L 82.099998 22.900000 Z" class="MsftOfcThm_Text1_lumMod_50_lumOff_50_Fill" stroke="none" stroke-width="1.000000" stroke-dasharray="" stroke-dashoffset="1.000000" fill="#7F7F7F" fill-opacity="1.000000"/></svg>