<svg version="1.1" viewBox="0.000000 0.000000 96.000000 96.000000" xmlns="http://www.w3.org/2000/svg" xmlns:xlink="http://www.w3.org/1999/xlink" id="Icons_Man" overflow="hidden"><g><circle cx="48.000000" cy="11.000000" r="8.000000"/><path d=" M 69.800003 52.200001 L 64.199997 28.400000 C 64.000000 27.600000 63.599998 26.799999 63.000000 26.200001 C 60.599998 24.200001 57.799999 22.799999 54.599998 21.799999 C 52.400002 21.400000 50.200001 21.000000 48.000000 21.000000 C 45.799999 21.000000 43.599998 21.400000 41.400002 22.000000 C 38.200001 22.799999 35.400002 24.400000 33.000000 26.400000 C 32.400002 27.000000 32.000000 27.799999 31.799999 28.600000 L 26.200001 52.400002 C 26.200001 52.599998 26.000000 53.000000 26.000000 53.400002 C 26.000000 55.599998 27.799999 57.400002 30.000000 57.400002 C 31.799999 57.400002 33.400002 56.000000 33.799999 54.400002 L 38.000000 37.000000 L 38.000000 93.000000 L 46.000000 93.000000 L 46.000000 57.000000 L 50.000000 57.000000 L 50.000000 93.000000 L 58.000000 93.000000 L 58.000000 36.799999 L 62.200001 54.200001 C 62.599998 55.799999 64.199997 57.200001 66.000000 57.200001 C 68.199997 57.200001 70.000000 55.400002 70.000000 53.200001 C 70.000000 52.799999 69.800003 52.400002 69.800003 52.200001 Z"/></g></svg>