<svg version="1.1" viewBox="0.000000 0.000000 96.000000 96.000000" xmlns="http://www.w3.org/2000/svg" xmlns:xlink="http://www.w3.org/1999/xlink" id="Icons_Laptop" overflow="hidden"><style>
.MsftOfcThm_Text1_Stroke {
 stroke:#000000; 
}
</style>
<path d=" M 76.000000 60.000000 L 20.000000 60.000000 L 20.000000 26.000000 L 76.000000 26.000000 L 76.000000 60.000000 Z M 82.000000 24.000000 C 82.000000 21.799999 80.199997 20.000000 78.000000 20.000000 L 18.000000 20.000000 C 15.800000 20.000000 14.000000 21.799999 14.000000 24.000000 L 14.000000 66.000000 L 82.000000 66.000000 L 82.000000 24.000000 Z" class="MsftOfcThm_Text1_Stroke" stroke="#000000" stroke-width="1.000000" stroke-dasharray="" stroke-dashoffset="1.000000" stroke-opacity="1.000000" fill="#FF0000" fill-opacity="1.000000"/><path d=" M 54.000000 70.000000 L 54.000000 71.000000 C 54.000000 71.599998 53.599998 72.000000 53.000000 72.000000 L 43.000000 72.000000 C 42.400002 72.000000 42.000000 71.599998 42.000000 71.000000 L 42.000000 70.000000 L 2.000000 70.000000 L 2.000000 72.000000 C 2.000000 74.199997 3.800000 76.000000 6.000000 76.000000 L 90.000000 76.000000 C 92.199997 76.000000 94.000000 74.199997 94.000000 72.000000 L 94.000000 70.000000 L 54.000000 70.000000 Z" class="MsftOfcThm_Text1_Stroke" stroke="#000000" stroke-width="1.000000" stroke-dasharray="" stroke-dashoffset="1.000000" stroke-opacity="1.000000" fill="#FF0000" fill-opacity="1.000000"/></svg>