<svg version="1.1" viewBox="0.000000 0.000000 96.000000 96.000000" xmlns="http://www.w3.org/2000/svg" xmlns:xlink="http://www.w3.org/1999/xlink" id="Icons_Computer" overflow="hidden"><path d=" M 56.000000 58.000000 L 8.000000 58.000000 L 8.000000 26.000000 L 56.000000 26.000000 L 56.000000 58.000000 Z M 58.000000 20.000000 L 6.000000 20.000000 C 3.800000 20.000000 2.000000 21.799999 2.000000 24.000000 L 2.000000 60.000000 C 2.000000 62.200001 3.800000 64.000000 6.000000 64.000000 L 26.000000 64.000000 L 26.000000 70.000000 L 17.000000 70.000000 L 17.000000 76.000000 L 47.000000 76.000000 L 47.000000 70.000000 L 38.000000 70.000000 L 38.000000 64.000000 L 58.000000 64.000000 C 60.200001 64.000000 62.000000 62.200001 62.000000 60.000000 L 62.000000 24.000000 C 62.000000 21.799999 60.200001 20.000000 58.000000 20.000000 Z"/><path d=" M 90.000000 30.000000 L 70.000000 30.000000 L 70.000000 24.000000 L 90.000000 24.000000 L 90.000000 30.000000 Z M 90.000000 40.000000 L 70.000000 40.000000 L 70.000000 34.000000 L 90.000000 34.000000 L 90.000000 40.000000 Z M 80.000000 70.000000 C 78.300003 70.000000 77.000000 68.699997 77.000000 67.000000 C 77.000000 65.300003 78.300003 64.000000 80.000000 64.000000 C 81.699997 64.000000 83.000000 65.300003 83.000000 67.000000 C 83.000000 68.699997 81.699997 70.000000 80.000000 70.000000 Z M 90.000000 20.000000 L 70.000000 20.000000 C 67.800003 20.000000 66.000000 21.799999 66.000000 24.000000 L 66.000000 72.000000 C 66.000000 74.199997 67.800003 76.000000 70.000000 76.000000 L 90.000000 76.000000 C 92.199997 76.000000 94.000000 74.199997 94.000000 72.000000 L 94.000000 24.000000 C 94.000000 21.799999 92.199997 20.000000 90.000000 20.000000 Z"/></svg>