<svg version="1.1" viewBox="0.000000 0.000000 96.000000 96.000000" xmlns="http://www.w3.org/2000/svg" xmlns:xlink="http://www.w3.org/1999/xlink" id="Icons_Monitor" overflow="hidden"><path d=" M 82.000000 64.000000 L 14.000000 64.000000 L 14.000000 20.000000 L 82.000000 20.000000 L 82.000000 64.000000 Z M 84.000000 14.000000 L 12.000000 14.000000 C 9.800000 14.000000 8.000000 15.800000 8.000000 18.000000 L 8.000000 66.000000 C 8.000000 68.199997 9.800000 70.000000 12.000000 70.000000 L 40.000000 70.000000 L 40.000000 76.000000 L 30.000000 76.000000 L 30.000000 82.000000 L 66.000000 82.000000 L 66.000000 76.000000 L 56.000000 76.000000 L 56.000000 70.000000 L 84.000000 70.000000 C 86.199997 70.000000 88.000000 68.199997 88.000000 66.000000 L 88.000000 18.000000 C 88.000000 15.800000 86.199997 14.000000 84.000000 14.000000 Z"/></svg>